<?xml version="1.0" standalone="no"?>
<!DOCTYPE svg PUBLIC "-//W3C//DTD SVG 20010904//EN"
 "http://www.w3.org/TR/2001/REC-SVG-20010904/DTD/svg10.dtd">
<svg version="1.0" xmlns="http://www.w3.org/2000/svg"
 width="512.000000pt" height="512.000000pt" viewBox="0 0 512.000000 512.000000"
 preserveAspectRatio="xMidYMid meet">
<g transform="translate(0.000000,512.000000) scale(0.100000,-0.100000)"
fill="#000000" stroke="none">
<path d="M0 2560 l0 -2560 2560 0 2560 0 0 2560 0 2560 -2560 0 -2560 0 0
-2560z m2895 1525 c608 -92 1084 -355 1348 -744 182 -269 233 -590 140 -886
-196 -628 -1013 -1079 -1908 -1052 -104 4 -221 11 -258 17 l-68 10 -330 -196
c-182 -108 -331 -195 -333 -193 -1 2 -15 126 -30 274 -39 383 -33 354 -70 369
-17 7 -58 30 -91 51 -317 202 -532 474 -612 774 -36 132 -38 343 -6 472 93
369 380 686 808 894 252 122 568 205 880 229 99 8 432 -4 530 -19z"/>
</g>
</svg>
